<?xml version="1.0" standalone="no"?><!DOCTYPE svg PUBLIC "-//W3C//DTD SVG 1.1//EN"
        "http://www.w3.org/Graphics/SVG/1.1/DTD/svg11.dtd">
<svg t="1735528422010" class="icon" viewBox="0 0 1024 1024" version="1.1" xmlns="http://www.w3.org/2000/svg"
     p-id="16056" xmlns:xlink="http://www.w3.org/1999/xlink" width="200" height="200">
    <path d="M896 794.624c5.12 32.768 32.768 27.648 36.864 41.984 0 9.216-5.12 41.984-18.432 47.104-14.336 0-32.768-5.12-46.08 0-9.216 5.12-18.432 9.216-23.552 18.432-9.216 23.552 9.216 41.984 0 51.2-14.336 9.216-41.984 23.552-51.2 14.336-14.336-14.336-14.336-32.768-41.984-32.768-36.864 0-36.864 37.888-56.32 37.888-18.432 0-51.2-14.336-51.2-27.648 5.12-18.432 14.336-32.768-5.12-51.2-23.552-18.432-51.2 0-60.416-9.216-14.336-9.216-18.432-32.768-14.336-46.08 5.12-14.336 36.864-14.336 36.864-51.2 0-27.648-32.768-32.768-36.864-51.2-5.12-14.336 5.12-37.888 18.432-41.984 23.552-9.216 36.864 9.216 60.416-9.216 14.336-14.336 9.216-47.104 9.216-56.32 5.12-14.336 23.552-18.432 36.864-18.432 27.648 0 18.432 32.768 56.32 37.888 36.864 0 32.768-14.336 51.2-37.888 23.552 0 41.984 9.216 46.08 18.432 9.216 18.432-9.216 47.104 18.432 65.536 23.552 14.336 46.08-5.12 60.416 0 9.216 5.12 14.336 18.432 18.432 37.888-7.168 25.6-49.152 20.48-44.032 62.464z m-167.936-93.184c-111.616 27.648-69.632 191.488 36.864 173.056 107.52-23.552 93.184-196.608-36.864-173.056z m41.984-94.208v0z m-17.408 6.144h-8.192c-44.032-5.12-33.792-44.032-66.56-44.032-16.384 0-38.912 5.12-44.032 21.504 0 11.264 6.144 49.152-11.264 65.536-27.648 21.504-44.032 0-71.68 10.24-5.12 2.048-9.216 5.12-12.288 9.216-34.816 3.072-72.704 5.12-112.64 5.12C235.52 683.008 81.92 637.952 81.92 582.656V443.392c0 56.32 153.6 101.376 344.064 101.376s344.064-45.056 344.064-101.376v139.264c0 10.24-6.144 21.504-17.408 30.72z m-326.656-94.208C235.52 519.168 81.92 474.112 81.92 417.792V278.528c0 56.32 153.6 101.376 344.064 101.376s344.064-45.056 344.064-101.376v139.264c0 56.32-153.6 101.376-344.064 101.376z m0-164.864C235.52 354.304 81.92 309.248 81.92 253.952v-101.376C81.92 96.256 235.52 51.2 425.984 51.2s344.064 45.056 344.064 101.376v101.376c0 55.296-153.6 100.352-344.064 100.352z m0 354.304c34.816 0 69.632-2.048 101.376-4.096 0 5.12 0 9.216 1.024 13.312 6.144 21.504 44.032 27.648 44.032 60.416 0 44.032-38.912 44.032-44.032 60.416-1.024 2.048-1.024 3.072-1.024 5.12-31.744 3.072-66.56 4.096-101.376 4.096C235.52 847.872 81.92 802.816 81.92 746.496V607.232c0 56.32 153.6 101.376 344.064 101.376z"
          p-id="16057"></path>
</svg>