<?xml version="1.0" standalone="no"?><!DOCTYPE svg PUBLIC "-//W3C//DTD SVG 1.1//EN"
        "http://www.w3.org/Graphics/SVG/1.1/DTD/svg11.dtd">
<svg t="1733492650466" class="icon" viewBox="0 0 1024 1024" version="1.1" xmlns="http://www.w3.org/2000/svg" p-id="7707"
     xmlns:xlink="http://www.w3.org/1999/xlink" width="200" height="200">
    <path d="M837.5 133.1H671.8c0-31.2-24.3-68.9-54.2-68.9H427.9c-30 0-54.2 37.7-54.2 68.9H208c-36.6 0-76.8 5.5-76.8 42.1v56.7h764.1v-56.7c-0.1-36.6-21.2-42.1-57.8-42.1z m0 0M198.7 298.1v539.7c0 54.9 53.8 121.8 108.7 121.8h430.7c54.9 0 90.9-66.9 90.9-121.8V298.1H198.7z m181 551h-66.3V371.5h66.3v477.6z m166.1 0h-66.3V371.5h66.3v477.6z m166 0h-66.3V371.5h66.3v477.6z m0 0"
          p-id="7708" fill="#2c2c2c"></path>
</svg>