<?xml version="1.0" standalone="no"?><!DOCTYPE svg PUBLIC "-//W3C//DTD SVG 1.1//EN"
        "http://www.w3.org/Graphics/SVG/1.1/DTD/svg11.dtd">
<svg t="1734601470705" class="icon" viewBox="0 0 1024 1024" version="1.1" xmlns="http://www.w3.org/2000/svg"
     p-id="16091" xmlns:xlink="http://www.w3.org/1999/xlink" width="200" height="200">
    <path d="M211.916 236.274h410.276c21.872 0 39.601-17.897 39.601-39.601 0-10.605-4.143-20.547-11.599-28.003-7.457-7.457-17.398-11.599-28.003-11.599h-410.276c-21.872 0-39.601 17.897-39.601 39.601s17.73 39.601 39.601 39.601zM211.916 550.608h318.975c21.872 0 39.601-17.897 39.601-39.601 0-10.605-4.143-20.547-11.599-28.003s-17.398-11.599-28.003-11.599h-318.975c-21.872 0-39.601 17.897-39.601 39.601s17.73 39.601 39.601 39.601zM658.479 471.238c-21.872 0-39.601 17.897-39.601 39.601s17.897 39.601 39.601 39.601h286.166c21.872 0 39.601-17.897 39.601-39.601 0-10.605-4.143-20.547-11.599-28.003-7.457-7.457-17.398-11.599-28.003-11.599h-286.166zM753.923 236.274h190.722c21.872 0 39.601-17.897 39.601-39.601 0-10.605-4.143-20.547-11.599-28.003-7.457-7.457-17.398-11.599-28.003-11.599h-190.722c-21.872 0-39.601 17.897-39.601 39.601s17.73 39.601 39.601 39.601zM70.407 157.069c-21.872 0-39.601 17.897-39.601 39.601 0 10.605 4.143 20.547 11.599 28.003 7.623 7.457 17.565 11.599 28.003 11.599 22.038 0 39.601-17.897 39.601-39.601s-17.73-39.601-39.601-39.601zM70.407 785.573c-21.872 0-39.601 17.897-39.601 39.601 0 10.605 4.143 20.547 11.599 28.003 7.623 7.457 17.565 11.599 28.003 11.599 22.038 0 39.601-17.73 39.601-39.601 0-21.707-17.73-39.601-39.601-39.601zM767.013 785.573h-555.098c-21.872 0-39.601 17.897-39.601 39.601s17.897 39.601 39.601 39.601h555.098c21.872 0 39.601-17.897 39.601-39.601s-17.73-39.601-39.601-39.601zM944.645 785.573h-46.894c-21.872 0-39.601 17.897-39.601 39.601s17.897 39.601 39.601 39.601h46.894c21.872 0 39.601-17.897 39.601-39.601s-17.73-39.601-39.601-39.601zM70.407 471.238c-21.872 0-39.601 17.897-39.601 39.601s17.897 39.601 39.601 39.601c22.038 0 39.601-17.897 39.601-39.601s-17.73-39.601-39.601-39.601z"
          p-id="16092" fill="#ffffff"></path>
</svg>