<?xml version="1.0" standalone="no"?><!DOCTYPE svg PUBLIC "-//W3C//DTD SVG 1.1//EN"
        "http://www.w3.org/Graphics/SVG/1.1/DTD/svg11.dtd">
<svg t="1735544007496" class="icon" viewBox="0 0 1024 1024" version="1.1" xmlns="http://www.w3.org/2000/svg"
     p-id="50389" xmlns:xlink="http://www.w3.org/1999/xlink" width="200" height="200">
    <path d="M1024 0H0v1024h1024V0z" fill="#FFFFFF" fill-opacity=".01" p-id="50390"></path>
    <path d="M841.344 655.168a330.688 330.688 0 0 1-446.592 19.328L318.464 750.72l113.152 113.152a32 32 0 1 1-45.248 45.248l-113.152-113.152-128.192 128.192a32 32 0 0 1-45.248-45.248l128.192-128.192-113.152-113.152a32 32 0 0 1 45.248-45.248l113.152 113.152 76.8-76.8a329.792 329.792 0 0 1-73.152-207.36 330.688 330.688 0 1 1 564.48 233.792z m-422.4-45.248a266.688 266.688 0 1 0 377.152-377.088A266.688 266.688 0 0 0 419.008 609.92z"
          fill="#F5319D" p-id="50391"></path>
</svg>