<?xml version="1.0" standalone="no"?><!DOCTYPE svg PUBLIC "-//W3C//DTD SVG 1.1//EN"
        "http://www.w3.org/Graphics/SVG/1.1/DTD/svg11.dtd">
<svg class="icon" width="200px" height="200.00px" viewBox="0 0 1024 1024" version="1.1"
     xmlns="http://www.w3.org/2000/svg">
    <path fill="#2c2c2c"
          d="M230.848 962.656h562.72c60.864 0 96.448-34.304 96.448-94.72V476.64l55.264 50.592c8.992 8.576 18.848 14.56 30.88 14.56 20.128 0 36.416-12.448 36.416-32.992 0-12.864-4.704-20.992-12.864-28.288l-148.704-135.872V92.256c0-18.848-12-30.88-30.848-30.88h-56.128c-18.464 0-31.296 12-31.296 30.88V237.12l-169.28-154.304c-15.008-13.728-32.992-21.408-51.424-21.408s-36.416 7.712-51.424 21.408L24.32 480.512c-7.712 7.296-12.864 15.424-12.864 28.288 0 20.576 16.288 32.992 36.416 32.992 12.448 0 22.304-5.984 30.88-14.56l55.264-50.144v390.848c0 60.416 35.552 94.72 96.864 94.72z m14.592-69.024c-27.424 0-42.432-15.008-42.432-42.848V414.08l293.984-267.84c4.288-4.288 9.408-6.848 15.008-6.848s10.72 2.144 15.424 6.848l293.568 267.872v436.704c0 27.872-14.592 42.848-42.016 42.848z m380.544-386.976c21.024-5.152 27.008-9.888 27.008-34.72v-85.312c0-16.288-5.568-23.136-28.704-17.984l-126.432 31.296c-21.44 5.568-26.144 9.888-26.144 35.552v195.008c0 19.264-1.28 22.72-23.584 28.704l-39.84 10.72c-39.008 10.272-72 33.44-72 75.84 0 36.864 27.424 63.424 71.136 63.424 61.728 0 103.712-44.128 103.712-107.168v-148.704c0-16.288 3.424-20.16 13.28-22.304z"/>
</svg>