<?xml version="1.0" standalone="no"?><!DOCTYPE svg PUBLIC "-//W3C//DTD SVG 1.1//EN"
        "http://www.w3.org/Graphics/SVG/1.1/DTD/svg11.dtd">
<svg t="1735527276887" class="icon" viewBox="0 0 1024 1024" version="1.1" xmlns="http://www.w3.org/2000/svg" p-id="6943"
     xmlns:xlink="http://www.w3.org/1999/xlink" width="200" height="200">
    <path d="M511.693597 512.306403m-499.437463 0a499.437463 499.437463 0 1 0 998.874925 0 499.437463 499.437463 0 1 0-998.874925 0Z"
          fill="#E2E2E2" p-id="6944"></path>
    <path d="M511.693597 1024C229.802513 1024 0 794.197487 0 512.306403 0 229.802513 229.802513 0 511.693597 0c282.50389 0 511.693597 229.802513 511.693596 511.693597 0 282.50389-229.189707 512.306403-511.693596 512.306403z m0-999.487732C243.284261 24.512268 24.512268 243.284261 24.512268 512.306403S243.284261 999.487732 511.693597 999.487732 998.874925 780.715739 998.874925 512.306403 780.715739 24.512268 511.693597 24.512268z"
          fill="#FFFFFF" p-id="6945"></path>
    <path d="M511.693597 512.306403m-499.437463 0a499.437463 499.437463 0 1 0 998.874925 0 499.437463 499.437463 0 1 0-998.874925 0Z"
          fill="#F0EEEE" p-id="6946"></path>
    <path d="M908.79234 766.621185c9.192101-14.094554 15.932974-26.350688 23.899461-41.670856 1.83842-3.064034 3.67684-6.740874 4.902454-10.417714 5.51526-11.643327 10.417714-23.286655 14.707361-34.317175 2.451227-4.902454 3.67684-9.192101 5.51526-14.707361 3.67684-11.643327 6.740874-22.061041 10.417714-33.704369 1.225613-5.51526 3.67684-10.417714 4.902454-15.932974 2.451227-11.643327 4.902454-23.899461 6.740873-35.542789 1.225613-4.902454 1.83842-9.804907 2.451227-14.707361 2.451227-17.771394 3.67684-35.542789 3.67684-52.701376 0-260.442849-211.418312-471.861161-471.861161-471.861161s-471.861161 211.418312-471.861161 471.861161c0 17.771394 1.225613 35.542789 3.676841 52.701376 1.225613 5.51526 1.225613 10.417714 2.451227 15.932975 1.225613 10.417714 3.67684 23.286655 5.51526 34.317175 0.612807 5.51526 2.451227 11.030521 4.902453 15.932974 3.67684 11.643327 6.740874 23.286655 10.417714 33.704369 1.83842 4.902454 3.67684 10.417714 5.515261 14.707361 4.289647 11.643327 9.192101 23.286655 14.707361 34.317175 1.225613 3.67684 3.67684 6.740874 4.902453 10.417714 7.35368 14.094554 15.320168 28.189108 23.899462 41.670856l1.225613 1.225613c139.719928 217.546379 429.577499 281.278276 647.123878 141.558349 56.991023-36.155595 104.789946-84.567325 141.558348-141.558349l0.612807-1.225613zM513.532017 265.345302c95.597846 0 173.424297 77.826451 173.424297 173.424297 0 95.597846-77.826451 173.424297-173.424297 173.424297-95.597846 0-173.424297-77.826451-173.424297-173.424297v-0.612807c0.612807-95.597846 77.826451-172.81149 173.424297-172.81149z m-286.18073 541.108319c68.634351-158.104129 252.476361-230.41532 410.58049-161.78097 72.311191 31.253142 130.527828 89.469779 161.78097 161.78097-76.600838 74.762418-179.552364 116.433273-286.18073 116.433273-107.241173 0.612807-209.579892-41.058049-286.18073-116.433273z"
          fill="#CECECE" p-id="6947"></path>
</svg>