<?xml version="1.0" standalone="no"?><!DOCTYPE svg PUBLIC "-//W3C//DTD SVG 1.1//EN"
        "http://www.w3.org/Graphics/SVG/1.1/DTD/svg11.dtd">
<svg t="1735387501943" class="icon" viewBox="0 0 1024 1024" version="1.1" xmlns="http://www.w3.org/2000/svg"
     p-id="31422" xmlns:xlink="http://www.w3.org/1999/xlink" width="200" height="200">
    <path d="M290 509c0-11.046-8.954-20-20-20h-51.949c-11.046 0-20 8.954-20 20s8.954 20 20 20H270c11.046 0 20-8.954 20-20zM290 679c0-11.046-8.954-20-20-20h-51.949c-11.046 0-20 8.954-20 20s8.954 20 20 20H270c11.046 0 20-8.954 20-20zM269.392 454.801v-59.996c0-11.046-8.954-20-20-20s-20 8.954-20 20v59.996c0 11.046 8.954 20 20 20s20-8.954 20-20zM229.392 564.63v59.997c0 11.046 8.954 20 20 20s20-8.954 20-20V564.63c0-11.046-8.954-20-20-20s-20 8.954-20 20z"
          fill="" p-id="31423"></path>
    <path d="M801.629 165.037c-17.284-17.639-40.293-27.353-64.789-27.353H320.421c-24.497 0-47.506 9.714-64.789 27.353-17.176 17.528-26.635 40.806-26.635 65.544v54.145c0 11.046 8.954 20 20 20s20-8.954 20-20v-54.145c0-14.207 5.4-27.542 15.206-37.549 9.697-9.897 22.56-15.348 36.218-15.348H736.84c13.657 0 26.521 5.451 36.219 15.348 9.805 10.007 15.204 23.342 15.204 37.549V793.42c0 14.205-5.4 27.54-15.203 37.548-9.699 9.896-22.563 15.348-36.22 15.348H320.421c-13.658 0-26.521-5.45-36.217-15.346-9.806-10.01-15.207-23.345-15.207-37.55v-55.493c0-11.046-8.954-20-20-20s-20 8.954-20 20v55.493c0 24.734 9.458 48.012 26.635 65.544 17.283 17.638 40.292 27.352 64.789 27.352H736.84c24.495 0 47.504-9.714 64.791-27.354 17.174-17.531 26.632-40.808 26.632-65.542V230.581c0-24.738-9.459-48.015-26.634-65.544z"
          fill="" p-id="31424"></path>
    <path d="M215.737 359.15h52.358c11.046 0 20-8.954 20-20s-8.954-20-20-20h-52.358c-11.046 0-20 8.954-20 20s8.954 20 20 20zM583.118 723.066c0 48.123 39.149 87.273 87.271 87.273s87.271-39.15 87.271-87.273c0-48.121-39.149-87.271-87.271-87.271s-87.271 39.15-87.271 87.271z m87.272-47.27c26.065 0 47.271 21.205 47.271 47.271 0 26.066-21.206 47.273-47.271 47.273s-47.271-21.207-47.271-47.273c-0.001-26.066 21.205-47.271 47.271-47.271zM366.111 294.626h162.518c11.046 0 20-8.954 20-20s-8.954-20-20-20H366.111c-11.046 0-20 8.954-20 20s8.954 20 20 20zM366.111 346.037h233.574c11.046 0 20-8.954 20-20s-8.954-20-20-20H366.111c-11.046 0-20 8.954-20 20s8.954 20 20 20zM366.111 397.449h101.677c11.046 0 20-8.954 20-20s-8.954-20-20-20H366.111c-11.046 0-20 8.954-20 20s8.954 20 20 20zM366.111 810.34h72.49c11.046 0 20-8.954 20-20s-8.954-20-20-20h-72.49c-11.046 0-20 8.954-20 20s8.954 20 20 20z"
          fill="" p-id="31425"></path>
</svg>