<?xml version="1.0" standalone="no"?><!DOCTYPE svg PUBLIC "-//W3C//DTD SVG 1.1//EN"
        "http://www.w3.org/Graphics/SVG/1.1/DTD/svg11.dtd">
<svg class="icon" width="200px" height="200.00px" viewBox="0 0 1024 1024" version="1.1"
     xmlns="http://www.w3.org/2000/svg">
    <path fill="#2c2c2c"
          d="M941.9824 109.728l0 804.576q0 14.848-10.848 25.728t-25.728 10.848l-292.576 0q-14.848 0-25.728-10.848t-10.848-25.728l0-804.576q0-14.848 10.848-25.728t25.728-10.848l292.576 0q14.848 0 25.728 10.848t10.848 25.728zM429.9824 109.728l0 804.576q0 14.848-10.848 25.728t-25.728 10.848l-292.576 0q-14.848 0-25.728-10.848t-10.848-25.728l0-804.576q0-14.848 10.848-25.728t25.728-10.848l292.576 0q14.848 0 25.728 10.848t10.848 25.728z"/>
</svg>