<?xml version="1.0" standalone="no"?><!DOCTYPE svg PUBLIC "-//W3C//DTD SVG 1.1//EN"
        "http://www.w3.org/Graphics/SVG/1.1/DTD/svg11.dtd">
<svg t="1735637451072" class="icon" viewBox="0 0 1024 1024" version="1.1" xmlns="http://www.w3.org/2000/svg"
     p-id="13290" xmlns:xlink="http://www.w3.org/1999/xlink" width="200" height="200">
    <path d="M375.168 679.296v-144.597333l-8.106667 9.386666a32.256 32.256 0 0 1-45.226666 2.56 32.256 32.256 0 0 1-2.56-45.226666l64-71.253334a32.469333 32.469333 0 0 1 35.413333-8.533333 31.914667 31.914667 0 0 1 20.48 29.866667v228.266666a31.616 31.616 0 0 1-32 31.573334 32.213333 32.213333 0 0 1-32-32.042667z"
          p-id="13291"></path>
    <path d="M501.802667 148.906667l34.986666-43.52a31.488 31.488 0 0 0-5.12-44.8 31.530667 31.530667 0 0 0-44.8 5.12L402.816 170.666667c-0.426667 0.426667-0.426667 0.853333-0.853333 1.706666a35.242667 35.242667 0 0 0-2.986667 5.546667 47.872 47.872 0 0 0-2.133333 5.546667 28.16 28.16 0 0 0-0.426667 5.973333v8.533333a33.834667 33.834667 0 0 1 1.706667 3.84 22.058667 22.058667 0 0 0 2.56 5.546667 45.184 45.184 0 0 0 4.266666 5.12c0.853333 0.853333 1.706667 2.133333 2.56 2.986667s1.28 0.426667 1.706667 0.853333a13.354667 13.354667 0 0 0 4.266667 2.133333 20.096 20.096 0 0 0 6.4 2.56 9.173333 9.173333 0 0 0 4.693333 0.853334c1.28 0 2.133333 0.426667 3.413333 0.426666a7.893333 7.893333 0 0 0 2.986667-0.853333h4.266667a337.322667 337.322667 0 0 1 77.226666-9.386667 347.306667 347.306667 0 1 1-347.306666 347.306667 343.68 343.68 0 0 1 70.4-207.189333 32 32 0 1 0-51.2-38.4 405.76 405.76 0 0 0-83.2 245.589333 411.306667 411.306667 0 1 0 410.88-410.88c-3.413333 0-6.826667 0.426667-10.24 0.426667z"
          p-id="13292"></path>
    <path d="M597.333333 711.253333a117.461333 117.461333 0 0 1-117.333333-117.333333v-57.6a117.333333 117.333333 0 1 1 234.666667 0v57.6A117.461333 117.461333 0 0 1 597.333333 711.253333z m0-227.84a53.418667 53.418667 0 0 0-53.333333 53.333334v57.6a53.333333 53.333333 0 1 0 106.666667 0v-57.6A53.376 53.376 0 0 0 597.333333 483.413333z"
          p-id="13293"></path>
</svg>