<?xml version="1.0" standalone="no"?><!DOCTYPE svg PUBLIC "-//W3C//DTD SVG 1.1//EN"
        "http://www.w3.org/Graphics/SVG/1.1/DTD/svg11.dtd">
<svg t="1735529650911" class="icon" viewBox="0 0 1024 1024" version="1.1" xmlns="http://www.w3.org/2000/svg"
     p-id="22440" xmlns:xlink="http://www.w3.org/1999/xlink" width="200" height="200">
    <path d="M593.2 411.9c-1.8-0.2-3.4-1.3-4.3-3L554.5 342c-8.9-17.2-25.6-27.2-45.7-27.3-19.3 0.4-36.4 11.4-44.7 28.9l-32.1 68c-0.8 1.7-2.3 2.9-4.2 3.2l-74.2 12.1c-19.1 3.1-34.4 16.5-40.1 35-5.6 18.5-0.4 38.2 13.7 51.5L382 565c1.3 1.3 2 3.1 1.7 4.9l-11.4 74.3c-2.9 19.1 5.1 37.9 20.9 49 8.7 6.1 18.8 9.2 28.9 9.2 8.3 0 16.6-2.1 24.3-6.3l66-36.2c1.6-0.9 3.5-0.9 5.2-0.1l67.2 33.8c17.3 8.7 37.6 6.9 53-4.8 15.5-11.6 22.8-30.7 19.2-49.7l-14-73.9c-0.3-1.8 0.2-3.7 1.5-5l52.9-53.4c13.6-13.7 18.2-33.6 11.9-51.9-6.3-18.3-22.1-31.2-41.3-33.6l-74.8-9.4z m72.2 63.4l-53 53.4c-11.6 11.8-16.8 28.6-13.7 44.9l14 73.9c0.5 2.8-0.9 4.6-2.1 5.5-1.3 1-3.3 1.8-5.9 0.5l-67.2-33.8c-14.8-7.5-32.4-7.2-46.9 0.8l-66 36.2c-2.6 1.4-4.6 0.6-5.9-0.3-1.3-0.9-2.8-2.6-2.3-5.4l11.4-74.3c2.5-16.4-3.2-33-15.3-44.4l-54.8-51.5c-2.1-2-2-4.2-1.5-5.7s1.6-3.4 4.4-3.9l74.2-12.1c16.4-2.7 30.4-13.2 37.5-28.2l32.1-68c1.3-2.7 3-3.4 5.1-3.2 1.6 0 3.7 0.5 4.9 3l34.5 66.8c7.6 14.8 22 24.8 38.4 26.9l74.6 9.5c2.8 0.4 4 2.2 4.6 3.7 0.8 1.5 1 3.7-1.1 5.7z"
          fill="" p-id="22441"></path>
    <path d="M858.1 147.4H445.7L363 102.6H161.3C101.6 102.5 53 151.1 53 210.8v590.4c0 59.7 48.6 108.3 108.3 108.3h702.5c59.7 0 108.3-48.6 108.3-108.3V261.3c-0.1-62.9-51.2-113.9-114-113.9z m69.1 653.8c0 35-28.5 63.4-63.4 63.4H161.3c-35 0-63.4-28.5-63.4-63.4V210.8c0-35 28.5-63.4 63.4-63.4h190.4l330.6 179.3h244.9v474.5zM693.7 281.9l-165.3-89.7h329.7c38.1 0 69 31 69 69v20.6H693.7z"
          fill="" p-id="22442"></path>
    <path d="M343.4 775c0 12.4 10 22.4 22.4 22.4h471.6c12.4 0 22.4-10 22.4-22.4 0-12.4-10-22.4-22.4-22.4H365.9c-12.4 0-22.5 10-22.5 22.4zM231.4 752.6h-21.5c-12.4 0-22.4 10-22.4 22.4 0 12.4 10 22.4 22.4 22.4h21.5c12.4 0 22.4-10 22.4-22.4 0-12.4-10-22.4-22.4-22.4z"
          fill="" p-id="22443"></path>
</svg>