<?xml version="1.0" standalone="no"?><!DOCTYPE svg PUBLIC "-//W3C//DTD SVG 1.1//EN" "http://www.w3.org/Graphics/SVG/1.1/DTD/svg11.dtd"><svg t="1744337800764" class="icon" viewBox="0 0 1024 1024" version="1.1" xmlns="http://www.w3.org/2000/svg" p-id="20614" xmlns:xlink="http://www.w3.org/1999/xlink" width="200" height="200"><path d="M929.706667 254.122667c-9.045333-4.352-12.928 3.968-18.218667 8.192-1.792 1.365333-3.328 3.157333-4.864 4.778666-13.226667 13.952-28.629333 23.082667-48.810667 21.973334-29.44-1.621333-54.613333 7.509333-76.885333 29.781333-4.736-27.434667-20.48-43.818667-44.373333-54.357333-12.501333-5.461333-25.173333-10.922667-33.92-22.784-6.144-8.448-7.808-17.92-10.88-27.178667-1.92-5.546667-3.84-11.306667-10.410667-12.288-7.082667-1.066667-9.856 4.778667-12.672 9.685333-11.093333 20.053333-15.402667 42.24-15.018667 64.597334 0.981333 50.346667 22.528 90.538667 65.365334 119.04 4.864 3.285333 6.144 6.570667 4.608 11.349333-2.944 9.813333-6.4 19.370667-9.472 29.226667-1.92 6.272-4.864 7.637333-11.690667 4.906666a196.608 196.608 0 0 1-61.738667-41.386666c-30.421333-29.056-57.984-61.141333-92.330666-86.272a403.2 403.2 0 0 0-24.490667-16.512c-34.986667-33.578667 4.608-61.184 13.781333-64.426667 9.6-3.413333 3.328-15.189333-27.648-15.018667-31.018667 0.128-59.392 10.368-95.573333 24.021334a109.653333 109.653333 0 0 1-16.512 4.778666 345.685333 345.685333 0 0 0-102.528-3.584c-66.986667 7.381333-120.533333 38.656-159.914667 92.032-47.274667 64.170667-58.410667 137.088-44.8 213.12 14.378667 80.128 55.808 146.474667 119.466667 198.4 66.090667 53.76 142.165333 80.128 228.906667 75.093334 52.736-2.986667 111.402667-9.984 177.578666-65.28 16.725333 8.192 34.218667 11.477333 63.317334 13.909333 22.357333 2.048 43.946667-1.066667 60.586666-4.48 26.154667-5.461333 24.32-29.354667 14.933334-33.706667-76.672-35.242667-59.818667-20.906667-75.093334-32.512 38.912-45.482667 97.578667-92.714667 120.533334-245.76 1.792-12.16 0.298667-19.797333 0-29.610666-0.128-6.016 1.28-8.32 8.192-9.045334a149.76 149.76 0 0 0 54.954666-16.64c49.621333-26.752 69.674667-70.698667 74.410667-123.434666 0.682667-8.021333-0.170667-16.384-8.789333-20.608zM497.066667 728.405333c-74.24-57.6-110.250667-76.586667-125.141334-75.733333-13.909333 0.810667-11.392 16.512-8.32 26.752 3.2 10.112 7.338667 17.066667 13.226667 25.941333 4.010667 5.845333 6.784 14.592-4.053333 21.162667-23.893333 14.592-65.493333-4.949333-67.456-5.888-48.384-28.117333-88.874667-65.28-117.376-116.053333-27.52-48.853333-43.52-101.290667-46.165334-157.269334-0.682667-13.525333 3.328-18.304 16.981334-20.736 17.92-3.285333 36.437333-3.968 54.357333-1.365333 75.776 10.922667 140.330667 44.373333 194.389333 97.322667 30.890667 30.165333 54.272 66.218667 78.293334 101.461333 25.6 37.376 53.162667 73.045333 88.192 102.229333 12.373333 10.24 22.229333 18.048 31.701333 23.765334-28.501333 3.157333-76.074667 3.84-108.629333-21.589334z m35.626666-225.92a10.837333 10.837333 0 0 1 14.72-10.112 9.728 9.728 0 0 1 4.053334 2.56 10.837333 10.837333 0 0 1-7.936 18.304 10.709333 10.709333 0 0 1-10.837334-10.752z m110.549334 55.978667a65.024 65.024 0 0 1-20.992 5.546667 44.672 44.672 0 0 1-28.373334-8.832c-9.728-8.064-16.682667-12.544-19.626666-26.624-1.237333-5.973333-0.554667-15.274667 0.597333-20.608 2.474667-11.477333-0.298667-18.858667-8.533333-25.557334-6.656-5.461333-15.146667-6.954667-24.448-6.954666a20.053333 20.053333 0 0 1-9.045334-2.730667c-3.882667-1.92-7.082667-6.698667-4.010666-12.544a40.021333 40.021333 0 0 1 6.826666-7.381333c12.629333-7.082667 27.221333-4.778667 40.704 0.554666 12.544 5.034667 21.973333 14.336 35.626667 27.434667 13.909333 15.829333 16.384 20.224 24.32 32.085333 6.272 9.301333 11.946667 18.858667 15.872 29.781334 2.346667 6.826667-0.725333 12.373333-8.917333 15.786666z" p-id="20615"></path></svg>