<?xml version="1.0" standalone="no"?><!DOCTYPE svg PUBLIC "-//W3C//DTD SVG 1.1//EN" "http://www.w3.org/Graphics/SVG/1.1/DTD/svg11.dtd"><svg t="1744337831905" class="icon" viewBox="0 0 6465 1024" version="1.1" xmlns="http://www.w3.org/2000/svg" p-id="20766" xmlns:xlink="http://www.w3.org/1999/xlink" width="1262.6953125" height="200"><path d="M1348.789884 85.951355c-14.399892-7.231946-20.671845 6.527951-29.055782 13.503899-2.879978 2.303983-5.37596 5.183961-7.807941 7.935941-21.119842 23.039827-45.759657 38.079714-77.951416 36.287727-47.103647-2.68798-87.295345 12.415907-122.879078 49.151632-7.487944-45.31166-32.639755-72.319458-70.847469-89.727327-20.03185-9.023932-40.191699-18.047865-54.207593-37.695718-9.727927-13.951895-12.415907-29.567778-17.279871-44.863663-3.135976-9.27993-6.207953-18.751859-16.639875-20.351847-11.391915-1.791987-15.807881 7.93594-20.287848 15.99988-17.727867 33.215751-24.639815 69.759477-23.93582 106.751199 1.535988 83.199376 35.96773 149.566878 104.319217 196.670525 7.807941 5.439959 9.855926 10.879918 7.359945 18.751859-4.607965 16.255878-10.239923 31.99976-15.103887 48.255638-3.071977 10.367922-7.679942 12.671905-18.62386 8.127939A314.109644 314.109644 0 0 1 887.161346 326.397552c-48.639635-47.99964-92.607305-101.055242-147.454894-142.526931-12.671905-9.599928-25.727807-18.68786-39.039707-27.327795-56.06358-55.487584 7.295945-101.055242 21.951835-106.495201 15.295885-5.631958 5.31196-24.959813-44.223668-24.767815-49.535628 0.191999-94.847289 17.151871-152.638855 39.679703a172.350707 172.350707 0 0 1-26.367802 7.871941 534.395992 534.395992 0 0 0-163.774772-5.823957c-107.071197 12.159909-192.574556 63.807521-255.422084 151.99886C4.671965 325.117562-13.119902 445.564658 8.639935 571.131717c22.847829 132.479006 89.087332 242.046185 190.846569 327.805541 105.471209 88.831334 227.006297 132.415007 365.629258 124.03107 84.159369-4.927963 177.918666-16.447877 283.645872-107.839191 26.6878 13.567898 54.65559 18.943858 101.119242 23.039827 35.711732 3.391975 70.143474-1.791987 96.831274-7.423945 41.727687-9.023932 38.847709-48.511636 23.743822-55.743582-122.367082-58.239563-95.487284-34.559741-119.935101-53.695597 62.207533-75.135436 155.902831-153.150851 192.638555-406.012955 2.879978-20.095849 0.383997-32.703755 0-48.959632-0.255998-9.919926 1.919986-13.759897 13.055902-14.911889a233.598248 233.598248 0 0 0 87.743342-27.519793c79.295405-44.159669 111.359165-116.799124 118.847109-203.902471 1.151991-13.3119-0.191999-27.071797-14.015895-34.047745zM657.723067 869.561478C539.131957 774.394192 481.596388 743.034427 457.788567 744.378417c-22.207833 1.34399-18.175864 27.327795-13.311901 44.223668 5.119962 16.639875 11.775912 28.159789 21.119842 42.879679 6.399952 9.663928 10.879918 24.127819-6.463951 34.943738-38.207713 24.127819-104.639215-8.127939-107.711193-9.727927-77.31142-46.399652-141.950935-107.775192-187.518593-191.678563A594.555541 594.555541 0 0 1 90.239323 405.116962c-1.151991-22.399832 5.31196-30.271773 27.071797-34.367743 28.607785-5.567958 57.983565-6.335952 86.847349-2.239983 121.087092 18.047865 224.190319 73.34345 310.58967 160.830794 49.27963 49.919626 86.591351 109.439179 125.055062 167.678742 40.895693 61.759537 84.863364 120.639095 140.798944 168.894734 19.839851 16.895873 35.583733 29.759777 50.68762 39.231705-45.567658 5.183961-121.535088 6.335952-173.502698-35.647732z m56.895573-373.3092c0-9.919926 7.743942-17.791867 17.535869-17.791866q3.327975 0 6.015955 1.087991a17.663868 17.663868 0 0 1 11.327915 16.703875 17.599868 17.599868 0 0 1-17.535869 17.855866 17.407869 17.407869 0 0 1-17.34387-17.855866zM891.193316 588.795584c-11.327915 4.735964-22.65583 8.831934-33.535748 9.27993a69.759477 69.759477 0 0 1-45.311661-14.719889c-15.551883-13.247901-26.6878-20.735844-31.359764-43.96767a102.207233 102.207233 0 0 1 0.895993-34.047745c4.03197-18.943858-0.447997-31.103767-13.503899-42.175684-10.68792-9.023932-24.255818-11.519914-39.103707-11.519913a31.231766 31.231766 0 0 1-14.463891-4.479967 14.783889 14.783889 0 0 1-6.399952-20.735844c1.535988-3.199976 9.087932-10.879918 10.879918-12.159909 20.223848-11.775912 43.519674-7.93594 65.087512 0.831994 19.96785 8.319938 35.071737 23.679822 56.831574 45.375659 22.207833 26.175804 26.239803 33.34375 38.847709 52.991603 10.047925 15.359885 19.199856 31.103767 25.343809 49.151631 3.839971 11.327915-1.087992 20.543846-14.207893 26.239804z m2806.570951 210.302423h-71.167466v-110.271173h71.167466c43.96767 0 88.511336-10.879918 117.375119-41.40769 28.863784-30.591771 39.423704-77.695417 39.423705-124.287067 0-46.527651-10.559921-93.439299-39.423705-123.967071-28.799784-30.591771-73.407449-41.407689-117.375119-41.407689-44.287668 0-88.575336 10.879918-117.439119 41.407689-29.119782 30.591771-39.423704 77.439419-39.423705 123.967071v453.372599h-124.799064V247.422144h124.799064v46.271653h22.847829c2.303983-2.559981 4.863964-5.119962 7.679942-7.679942 31.167766-28.607785 78.911408-38.591711 126.335053-38.591711 73.407449 0 147.390895 18.239863 195.646532 69.119482 47.99964 50.879618 65.471509 129.151031 65.471509 206.846449 0 77.439419-17.471869 155.710832-65.471509 206.526451-48.255638 51.199616-122.239083 69.119482-195.646532 69.119481zM1797.106522 266.558001h71.103466v110.271173H1797.106522c-44.03167 0-88.575336 10.879918-117.43912 41.727687-28.799784 30.527771-39.423704 77.439419-39.423704 123.96707 0 46.527651 10.559921 93.439299 39.423704 123.96707 28.863784 30.591771 73.407449 41.727687 117.43912 41.727687 44.287668 0 88.575336-11.135916 117.439119-41.727687 29.119782-30.527771 39.423704-77.439419 39.423704-123.96707v-453.116602h124.799064V818.553861h-124.799064v-46.591651h-22.847828a49.471629 49.471629 0 0 1-7.743942 7.679943c-31.167766 28.607785-78.847409 38.911708-126.271053 38.911708-73.407449 0-147.390895-18.303863-195.710532-69.439479C1553.39635 698.234763 1535.98848 620.219348 1535.98848 542.523931s17.407869-155.710832 65.40751-206.846449c48.319638-50.815619 122.239083-69.119482 195.710532-69.119481z m908.473186 266.238003v44.287668h-332.541506V488.508336h220.542346c-5.119962-32.255758-16.831874-62.271533-37.439719-83.96737-30.271773-31.743762-76.223428-43.135676-122.239083-43.135677-45.695657 0-92.03131 11.391915-121.983085 43.135677-30.015775 31.359765-40.895693 79.9994-40.895694 128.255038 0 48.319638 10.879918 96.831274 40.895694 128.575036 29.951775 31.679762 76.287428 42.879678 121.983085 42.879678 45.951655 0 91.96731-11.199916 122.239083-42.879678a142.078934 142.078934 0 0 0 11.455914-14.591891h123.391075c-10.559921 38.271713-27.96779 72.895453-53.695598 100.03125-50.303623 52.799604-127.103047 71.679462-203.390474 71.679462s-153.150851-18.879858-203.134477-71.679462c-50.303623-52.863604-68.287488-133.758997-68.287488-214.014395s17.983865-161.086792 68.287488-213.950395c49.983625-52.607605 126.847049-71.423464 203.134477-71.423465s153.086852 18.815859 203.390474 71.423465c50.303623 52.863604 68.287488 133.694997 68.287488 213.950395z m626.491301 0v44.287668h-332.541505V488.508336h220.798344c-5.119962-32.255758-16.831874-62.271533-37.695718-83.96737-29.951775-31.743762-75.96743-43.135676-121.983085-43.135677-45.695657 0-91.96731 11.391915-121.983085 43.135677-29.951775 31.359765-40.831694 79.9994-40.831694 128.255038 0 48.319638 10.879918 96.831274 40.831694 128.575036 30.015775 31.679762 76.287428 42.879678 121.983085 42.879678 46.079654 0 92.03131-11.199916 121.983085-42.879678 4.287968-4.607965 8.319938-9.407929 11.775912-14.591891h123.391075c-10.879918 38.271713-28.03179 72.895453-53.759597 100.03125-50.239623 52.799604-127.103047 71.679462-203.390475 71.679462-76.223428 0-153.086852-18.879858-203.390474-71.679462-49.983625-52.863604-67.96749-133.758997-67.967491-214.014395s17.983865-161.086792 67.967491-213.950395c50.303623-52.607605 127.167046-71.423464 203.390474-71.423465 76.287428 0 153.150851 18.815859 203.454474 71.423465 49.919626 52.863604 67.96749 133.694997 67.96749 213.950395z m982.200634 285.693857c76.287428 0 153.086852-11.135916 203.070477-42.239683 50.303623-31.167766 68.287488-78.911408 68.287488-126.335052 0-47.359645-17.983865-95.103287-68.287488-126.271053-49.919626-31.103767-126.783049-42.239683-203.070477-42.239684h2.559981c-32.639755 0-65.407509-4.287968-86.591351-16.639875a53.759597 53.759597 0 0 1-29.119781-48.831633c0-18.559861 7.679942-36.799724 29.119781-49.087632 21.119842-12.03191 54.015595-16.319878 86.591351-16.319878s65.407509 4.287968 86.847348 16.319878a53.759597 53.759597 0 0 1 28.799784 49.087632h127.167047c0-47.359645-16.255878-95.103287-61.43954-126.271053-45.439659-31.103767-114.815139-42.239683-183.93462-42.239684s-138.558961 11.135916-183.99862 42.239684c-45.439659 31.167766-61.695537 78.847409-61.695537 126.271053 0 47.423644 16.255878 95.167286 61.695537 126.271052 45.439659 31.167766 114.815139 42.303683 183.99862 42.303683 35.96773 0 75.135436 4.287968 98.815259 16.319878 23.679822 11.96791 31.99976 30.527771 31.99976 49.087632 0 18.303863-8.319938 36.863724-31.99976 48.895633-23.679822 11.96791-59.96755 16.511876-95.99928 16.511876-35.96773 0-72.319458-4.479966-95.679283-16.511876-23.679822-12.03191-32.255758-30.591771-32.255758-48.895633H4042.849679c0 47.423644 17.983865 95.167286 67.96749 126.271053 50.303623 31.167766 126.847049 42.239683 203.454474 42.239683z m897.913266-285.693857v44.287668h-332.605506V488.508336h220.862344c-5.119962-32.255758-16.831874-62.271533-37.759717-83.96737-29.951775-31.743762-75.96743-43.135676-121.919086-43.135677-45.695657 0-92.03131 11.391915-121.983085 43.135677-30.015775 31.359765-40.895693 79.9994-40.895693 128.255038 0 48.319638 10.879918 96.831274 40.895693 128.575036 29.951775 31.679762 76.287428 42.879678 121.983085 42.879678 45.951655 0 91.96731-11.199916 121.983085-42.879678a113.27915 113.27915 0 0 0 11.711913-14.591891h123.391074c-10.879918 38.271713-27.96779 72.895453-53.695597 100.03125-50.303623 52.799604-127.103047 71.679462-203.390475 71.679462s-153.150851-18.879858-203.390474-71.679462c-50.047625-52.863604-68.03149-133.758997-68.03149-214.014395s17.983865-161.086792 68.03149-213.950395c50.239623-52.607605 127.103047-71.423464 203.390474-71.423465s153.086852 18.815859 203.390475 71.423465c49.983625 52.863604 67.96749 133.694997 67.96749 213.950395z m626.747299 0v44.287668h-332.541506V488.508336h220.798344c-5.37596-32.255758-16.831874-62.271533-37.631718-83.96737-30.079774-31.743762-76.287428-43.135676-122.047084-43.135677-45.695657 0-91.96731 11.391915-121.983085 43.135677-30.271773 31.359765-40.831694 79.9994-40.831694 128.255038 0 48.319638 10.559921 96.831274 40.831694 128.575036 30.015775 31.679762 76.287428 42.879678 121.983085 42.879678 45.759657 0 92.03131-11.199916 122.047084-42.879678 4.223968-4.607965 7.93594-9.407929 11.647913-14.591891h123.455074c-10.879918 38.271713-28.03179 72.895453-54.015595 100.03125-49.983625 52.799604-126.847049 71.679462-203.134476 71.679462-76.223428 0-153.406849-18.879858-203.390475-71.679462-49.983625-52.863604-67.96749-133.758997-67.96749-214.014395s17.983865-161.086792 67.96749-213.950395c49.983625-52.607605 127.167046-71.423464 203.390475-71.423465 76.287428 0 153.150851 18.815859 203.134476 71.423465 50.303623 52.863604 68.287488 133.694997 68.287488 213.950395zM5922.963578 63.99952h124.863063v754.68234h-124.863063V63.99952z m337.917465 451.644613l204.862464 302.845728h-154.878838l-204.798464-302.845728 204.798464-242.814179h154.878838l-204.798464 242.814179z" p-id="20767" fill="#8b80af"></path></svg>