<?xml version="1.0" standalone="no"?><!DOCTYPE svg PUBLIC "-//W3C//DTD SVG 1.1//EN" "http://www.w3.org/Graphics/SVG/1.1/DTD/svg11.dtd"><svg t="1744335518777" class="icon" viewBox="0 0 1024 1024" version="1.1" xmlns="http://www.w3.org/2000/svg" p-id="6256" xmlns:xlink="http://www.w3.org/1999/xlink" width="200" height="200"><path d="M876.48 832H147.52A90.64 90.64 0 0 1 56 742.4V544a32 32 0 0 1 64 0v198.4a26.64 26.64 0 0 0 27.52 25.6h728.96a26.64 26.64 0 0 0 27.52-25.6V281.6a26.64 26.64 0 0 0-27.52-25.6H147.52A26.64 26.64 0 0 0 120 281.6V320a32 32 0 0 1-64 0v-38.4A90.64 90.64 0 0 1 147.52 192h728.96A90.64 90.64 0 0 1 968 281.6v460.8a90.64 90.64 0 0 1-91.52 89.6z" fill="#3E3A39" p-id="6257"></path><path d="M512 648a93.12 93.12 0 0 1-66.32-27.44L96.48 271.36a32 32 0 0 1 45.28-45.28l349.2 349.2a30.48 30.48 0 0 0 42.08 0l349.2-349.2a32 32 0 0 1 45.28 45.28L578.32 620.56A93.12 93.12 0 0 1 512 648z" fill="#3E3A39" p-id="6258"></path><path d="M88 432m-32 0a32 32 0 1 0 64 0 32 32 0 1 0-64 0Z" fill="#3E3A39" p-id="6259"></path></svg>