<?xml version="1.0" standalone="no"?><!DOCTYPE svg PUBLIC "-//W3C//DTD SVG 1.1//EN" "http://www.w3.org/Graphics/SVG/1.1/DTD/svg11.dtd"><svg t="1746863081836" class="icon" viewBox="0 0 1024 1024" version="1.1" xmlns="http://www.w3.org/2000/svg" p-id="3950" xmlns:xlink="http://www.w3.org/1999/xlink" width="200" height="200"><path d="M512 256C245.248 256 40 491.008 40 491.008L20.992 512l19.008 20.992s187.136 213.376 436 233.024c11.872 1.472 23.744 1.984 36 1.984s24.128-0.512 36-2.016c248.864-19.616 436-232.96 436-232.96l19.008-21.024-19.008-20.992S778.752 256 512 256z m0 64c70.496 0 135.488 19.264 192 44.992 20.384 33.76 32 72.64 32 115.008a223.84 223.84 0 0 1-199.008 223.008c-0.64 0.128-1.376-0.128-1.984 0-7.648 0.352-15.264 0.992-23.008 0.992-8.512 0-16.736-0.512-24.992-0.992A223.84 223.84 0 0 1 288 480c0-41.76 11.264-80.64 31.008-114.016h-0.992C374.944 339.744 440.736 320 512 320z m0 64a96 96 0 1 0 0.064 192.064A96 96 0 0 0 512 384z m-280 30.016A288.192 288.192 0 0 0 224 480c0 56.128 16 108.64 44 152.992A742.272 742.272 0 0 1 112.992 512a765.76 765.76 0 0 1 119.008-98.016z m560 0A765.76 765.76 0 0 1 911.008 512a742.272 742.272 0 0 1-155.008 120.992A285.728 285.728 0 0 0 800 480c0-22.88-3.008-44.736-8-66.016z" p-id="3951"></path></svg>