<?xml version="1.0" standalone="no"?><!DOCTYPE svg PUBLIC "-//W3C//DTD SVG 1.1//EN"
        "http://www.w3.org/Graphics/SVG/1.1/DTD/svg11.dtd">
<svg t="1735112445095" class="icon" viewBox="0 0 1024 1024" version="1.1" xmlns="http://www.w3.org/2000/svg"
     p-id="30105" xmlns:xlink="http://www.w3.org/1999/xlink" width="200" height="200">
    <path d="M349.3 710.8c-108.5 0-198.8-90.4-198.8-198.8s90.4-198.8 198.8-198.8h379.6c79.5 0 144.6 65.1 144.6 144.6s-65.1 144.6-144.6 144.6H421.6c-50.6 0-90.4-39.8-90.4-90.4s39.8-90.4 90.4-90.4h271.1v54.2H421.6c-21.7 0-36.1 14.5-36.1 36.1S400 548 421.6 548h307.3c50.6 0 90.4-39.8 90.4-90.4s-39.8-90.4-90.4-90.4H349.3c-79.5 0-144.6 65.1-144.6 144.6s65.1 144.6 144.6 144.6h343.4v54.2H349.3z"
          fill="#8b80af" p-id="30106"></path>
</svg>