<?xml version="1.0" standalone="no"?><!DOCTYPE svg PUBLIC "-//W3C//DTD SVG 1.1//EN"
        "http://www.w3.org/Graphics/SVG/1.1/DTD/svg11.dtd">
<svg class="icon" width="200px" height="200.00px" viewBox="0 0 1024 1024" version="1.1"
     xmlns="http://www.w3.org/2000/svg">
    <path fill="#2c2c2c"
          d="M249.4976 62.0032c-41.4208 0-74.99776 33.57696-74.99776 74.99776v262.5024H99.50208a37.49888 37.49888 0 0 0-37.504 37.49888v318.7456a37.49888 37.49888 0 0 0 37.504 37.504h74.99776v93.7472c0 41.4208 33.57696 75.00288 74.99776 75.00288h637.50144c41.4208 0 75.00288-33.58208 75.00288-75.00288V310.25152l-246.66112-248.25344H249.4976z m0 56.24832h442.4192l7.58272 7.60832v112.4608c0 47.5904 38.58944 86.17984 86.17984 86.17984h111.20128l8.86784 8.91904v553.57952a18.74944 18.74944 0 0 1-18.74944 18.74944H249.4976a18.74944 18.74944 0 0 1-18.74944-18.74944v-93.7472h562.50368a37.49888 37.49888 0 0 0 37.49888-37.504V437.00224a37.49888 37.49888 0 0 0-37.49888-37.504H230.74816v-262.5024a18.74944 18.74944 0 0 1 18.74944-18.74432z m477.98272 355.2c20.34176 0 37.20192 3.28192 50.60096 9.84064v39.32672c-14.1824-9.55392-29.81888-14.33088-46.92992-14.33088-22.784 0-41.2672 8.27392-55.4496 24.832-14.08 16.55808-21.12 38.66112-21.12 66.3296 0 26.33216 6.59456 47.3344 19.79904 63.0016 13.19936 15.55456 30.55616 23.33696 52.0704 23.33696 19.85024 0 37.05856-5.32992 51.63008-16v36.6592c-15.84128 9.33376-35.54304 14.0032-59.1104 14.0032-30.5152 0-54.95808-10.94144-73.33888-32.82944-18.38592-21.888-27.58144-50.61632-27.58144-86.1696 0-38.22592 10.3168-69.10464 30.9504-92.66176 20.73088-23.552 46.89408-35.33824 78.47936-35.33824z m-598.92224 3.99872h113.53088v33.66912H163.47136v71.8336H235.9296v33.49504H163.47136v100.00384h-34.91328v-239.0016z m150.79424 0h34.90816v205.50144h81.5616v33.50016H279.3472v-239.0016z m209.61792 0h39.31136l78.1824 239.0016h-38.28224l-18.93376-60.83072H466.51904l-18.19136 60.8256h-38.12864l78.7712-238.99648z m18.4832 35.50208c-0.88576 6.33344-1.85856 11.33056-2.93376 15.0016l-28.89728 95.3344h64.38912l-29.18912-95.3344c-0.88064-3.11296-1.80224-8.1152-2.78016-15.0016h-0.59392z"/>
</svg>