<?xml version="1.0" standalone="no"?><!DOCTYPE svg PUBLIC "-//W3C//DTD SVG 1.1//EN"
        "http://www.w3.org/Graphics/SVG/1.1/DTD/svg11.dtd">
<svg t="1735637426759" class="icon" viewBox="0 0 1024 1024" version="1.1" xmlns="http://www.w3.org/2000/svg"
     p-id="13067" xmlns:xlink="http://www.w3.org/1999/xlink" width="200" height="200">
    <path d="M795.392 307.114667a32 32 0 0 0-6.4 44.885333 343.68 343.68 0 0 1 70.4 207.36 347.306667 347.306667 0 1 1-347.306667-346.88 334.549333 334.549333 0 0 1 77.226667 9.386667 14.208 14.208 0 0 0 4.266667 0c0.853333 0 2.133333 0.853333 2.986666 0.853333s2.133333-0.426667 3.413334-0.426667a12.8 12.8 0 0 0 4.266666-0.853333 20.096 20.096 0 0 0 6.4-2.56c1.28-0.853333 2.986667-1.28 4.266667-2.133333 0.426667-0.426667 1.28-0.426667 1.706667-0.853334 1.28-0.853333 1.706667-2.133333 2.56-2.986666a24.746667 24.746667 0 0 0 4.266666-5.12 32.170667 32.170667 0 0 0 2.56-5.546667c0.426667-1.28 1.28-2.56 1.706667-3.84V196.266667a16.170667 16.170667 0 0 0 0-6.4 28.16 28.16 0 0 0-0.426667-5.973334 47.829333 47.829333 0 0 0-2.133333-5.546666 26.069333 26.069333 0 0 0-2.986667-5.973334c-0.426667-0.853333-0.426667-1.28-0.853333-1.706666l-84.48-105.472a32.298667 32.298667 0 0 0-44.8-5.12 32.298667 32.298667 0 0 0-5.12 44.8l34.986667 43.52c-3.413333 0-6.826667-0.426667-10.24-0.426667a411.306667 411.306667 0 1 0 411.306666 411.306667 405.333333 405.333333 0 0 0-82.773333-245.674667 32 32 0 0 0-44.8-6.485333z"
          p-id="13068" fill="#2c2c2c"></path>
    <path d="M375.168 679.296v-144.597333l-8.106667 9.386666a32.256 32.256 0 0 1-45.226666 2.56 32.256 32.256 0 0 1-2.56-45.226666l64-71.253334a32.469333 32.469333 0 0 1 35.413333-8.533333 31.914667 31.914667 0 0 1 20.48 29.866667v228.266666a31.616 31.616 0 0 1-32 31.573334 32.213333 32.213333 0 0 1-32-32.042667zM597.333333 711.253333a117.461333 117.461333 0 0 1-117.333333-117.333333v-57.6a117.333333 117.333333 0 1 1 234.666667 0v57.6A117.461333 117.461333 0 0 1 597.333333 711.253333z m0-227.84a53.418667 53.418667 0 0 0-53.333333 53.333334v57.6a53.333333 53.333333 0 1 0 106.666667 0v-57.6A53.376 53.376 0 0 0 597.333333 483.413333z"
          p-id="13069" fill="#2c2c2c"></path>
</svg>