<?xml version="1.0" standalone="no"?><!DOCTYPE svg PUBLIC "-//W3C//DTD SVG 1.1//EN" "http://www.w3.org/Graphics/SVG/1.1/DTD/svg11.dtd"><svg t="1744617217243" class="icon" viewBox="0 0 1025 1024" version="1.1" xmlns="http://www.w3.org/2000/svg" p-id="18035" xmlns:xlink="http://www.w3.org/1999/xlink" width="200.1953125" height="200"><path d="M674.218667 733.866667a140.032 140.032 0 0 1 133.802666 106.325333h179.2a40.277333 40.277333 0 0 1 0 80.469333H806.997333a137.045333 137.045333 0 0 1-265.557333 0H40.618667a40.277333 40.277333 0 0 1 0-80.469333h499.882666A140.032 140.032 0 0 1 674.218667 733.866667z m-1.450667 80.384a64.426667 64.426667 0 1 0 63.146667 64.426666 63.829333 63.829333 0 0 0-63.146667-64.170666zM304.213333 366.933333a139.776 139.776 0 0 1 132.864 102.997334h549.632a40.277333 40.277333 0 0 1 0 80.469333H437.930667a137.301333 137.301333 0 0 1-267.434667 0H40.618667a40.277333 40.277333 0 0 1 0-80.469333h130.901333A139.605333 139.605333 0 0 1 304.213333 366.933333z m-1.450666 80.298667a64.426667 64.426667 0 1 0 63.146666 64.426667 63.829333 63.829333 0 0 0-63.146666-64.341334zM735.829333 0a139.690667 139.690667 0 0 1 131.84 99.669333h119.466667a40.277333 40.277333 0 0 1 0 80.469334h-116.906667a137.472 137.472 0 0 1-269.141333 0H40.533333a40.277333 40.277333 0 0 1 0-80.469334h563.2A139.861333 139.861333 0 0 1 735.829333 0z m-1.450666 80.384a64.426667 64.426667 0 1 0 63.146666 64.426667 63.829333 63.829333 0 0 0-63.146666-64.426667z" p-id="18036" fill="#8a80af"></path></svg>