<?xml version="1.0" standalone="no"?><!DOCTYPE svg PUBLIC "-//W3C//DTD SVG 1.1//EN"
        "http://www.w3.org/Graphics/SVG/1.1/DTD/svg11.dtd">
<svg t="1735387103424" class="icon" viewBox="0 0 1024 1024" version="1.1" xmlns="http://www.w3.org/2000/svg"
     p-id="17750" xmlns:xlink="http://www.w3.org/1999/xlink" width="200" height="200">
    <path d="M689.5616 191.2832H121.0368c-26.5216 0-48.128 21.6064-48.128 48.128v545.1776c0 26.5216 21.6064 48.128 48.128 48.128h568.4224c26.5216 0 48.128-21.6064 48.128-48.128V239.5136c0-26.624-21.6064-48.2304-48.0256-48.2304z m17.3056 593.3056c0 9.6256-7.7824 17.408-17.408 17.408H121.0368c-9.6256 0-17.408-7.7824-17.408-17.408V239.5136c0-9.6256 7.7824-17.408 17.408-17.408h568.4224c9.6256 0 17.408 7.7824 17.408 17.408v545.0752z"
          fill="#2c2c2c" p-id="17751"></path>
    <path d="M689.5616 837.632H121.0368c-29.2864 0-53.0432-23.7568-53.0432-53.0432V239.4112c0-29.2864 23.7568-53.0432 53.0432-53.0432h568.4224c29.2864 0 53.0432 23.8592 53.0432 53.248v545.0752c0.1024 29.184-23.7568 52.9408-52.9408 52.9408zM121.0368 196.1984C97.28 196.1984 77.824 215.552 77.824 239.4112v545.1776c0 23.7568 19.3536 43.2128 43.2128 43.2128h568.4224c23.7568 0 43.2128-19.3536 43.2128-43.2128V239.5136c0-23.8592-19.3536-43.3152-43.2128-43.3152H121.0368zM689.5616 806.912H121.0368c-12.288 0-22.3232-10.0352-22.3232-22.3232V239.5136c0-12.288 10.0352-22.3232 22.3232-22.3232h568.4224c12.288 0 22.3232 10.0352 22.3232 22.3232v545.0752c0.1024 12.288-9.9328 22.3232-22.2208 22.3232zM121.0368 227.1232c-6.8608 0-12.4928 5.632-12.4928 12.4928v545.0752c0 6.8608 5.632 12.4928 12.4928 12.4928h568.4224c6.8608 0 12.4928-5.632 12.4928-12.4928V239.5136c0-6.8608-5.632-12.4928-12.4928-12.4928H121.0368z"
          fill="#2c2c2c" p-id="17752"></path>
    <path d="M923.4432 301.7728v420.4544c0 7.68 6.144 13.824 13.824 13.824s13.824-6.144 13.824-13.824V301.7728c0-7.68-6.144-13.824-13.824-13.824s-13.824 6.2464-13.824 13.824z"
          fill="#2c2c2c" p-id="17753"></path>
    <path d="M937.2672 740.9664c-10.3424 0-18.7392-8.3968-18.7392-18.7392V301.7728c0-10.3424 8.3968-18.7392 18.7392-18.7392s18.7392 8.3968 18.7392 18.7392v420.4544c0 10.3424-8.3968 18.7392-18.7392 18.7392z m0-448.1024c-4.9152 0-8.9088 3.9936-8.9088 8.9088v420.4544c0 4.9152 3.9936 8.9088 8.9088 8.9088s8.9088-3.9936 8.9088-8.9088V301.7728c-0.1024-4.9152-4.096-8.9088-8.9088-8.9088z"
          fill="#2c2c2c" p-id="17754"></path>
    <path d="M813.7728 252.5184v518.8608c0 8.3968 6.8608 15.4624 15.4624 15.4624 8.6016 0 15.4624-6.8608 15.4624-15.4624V252.5184c0-8.4992-6.8608-15.4624-15.4624-15.4624-8.704 0.1024-15.4624 7.0656-15.4624 15.4624z"
          fill="#2c2c2c" p-id="17755"></path>
    <path d="M829.1328 791.8592c-11.264 0-20.3776-9.1136-20.3776-20.3776V252.5184c0-11.264 9.1136-20.3776 20.3776-20.3776 11.264 0 20.3776 9.1136 20.3776 20.3776v518.8608c0 11.4688-8.9088 20.48-20.3776 20.48z m0-549.7856c-5.8368 0-10.5472 4.7104-10.5472 10.5472v518.8608c0 5.8368 4.7104 10.5472 10.5472 10.5472 5.9392 0 10.5472-4.608 10.5472-10.5472V252.5184c0-5.7344-4.7104-10.4448-10.5472-10.4448z"
          fill="#2c2c2c" p-id="17756"></path>
    <path d="M539.5456 344.1664l-214.6304 35.2256c-3.7888 0.6144-6.5536 3.8912-6.5536 7.68v191.8976c0 14.7456-10.752 27.3408-25.3952 29.3888l-20.992 3.072c-17.92 2.56-31.0272 18.0224-31.0272 35.9424v3.7888c0 22.2208 19.8656 39.3216 41.7792 35.9424l27.4432-4.096c25.3952-3.7888 44.032-25.4976 44.032-51.2V467.3536c0-3.8912 2.7648-7.168 6.5536-7.68L503.808 436.3264c4.7104-0.8192 9.1136 2.9696 9.1136 7.68v104.3456c0 14.7456-10.752 27.3408-25.3952 29.3888l-20.992 3.072c-17.92 2.56-31.0272 18.0224-31.0272 35.9424v3.6864c0 22.2208 19.8656 39.3216 41.7792 35.9424l27.4432-4.096c25.3952-3.7888 44.032-25.4976 44.032-51.2V351.8464c-0.1024-4.9152-4.5056-8.4992-9.216-7.68z m0 0"
          fill="#2c2c2c" p-id="17757"></path>
</svg>