<?xml version="1.0" standalone="no"?><!DOCTYPE svg PUBLIC "-//W3C//DTD SVG 1.1//EN"
        "http://www.w3.org/Graphics/SVG/1.1/DTD/svg11.dtd">
<svg t="1735633766938" class="icon" viewBox="0 0 1340 1024" version="1.1" xmlns="http://www.w3.org/2000/svg" p-id="2307"
     xmlns:xlink="http://www.w3.org/1999/xlink" width="261.71875" height="200">
    <path d="M892.546031 129.871937c-220.521311 0-399.301723 178.775031-399.301723 399.296342 0 220.521311 178.780412 399.301723 399.301723 399.301723s399.296342-178.780412 399.296342-399.301723c0-220.526692-178.775031-399.296342-399.296342-399.296342z m-0.005381 527.037378c-70.551107 0-127.746417-57.189929-127.746418-127.741036s57.19531-127.746417 127.746418-127.746417 127.741036 57.19531 127.741036 127.746417c0 70.551107-57.189929 127.741036-127.741036 127.741036z"
          fill="#EEEEFC" p-id="2308"></path>
    <path d="M892.546031 102.966626c-113.841753 0-220.87108 44.334572-301.371772 124.829882-80.500691 80.500691-124.835263 187.530019-124.835263 301.371771 0 235.017893 191.194522 426.207034 426.207035 426.207034 113.841753 0 220.87108-44.32381 301.371771-124.829881 80.500691-80.49531 124.829882-187.5354 124.829882-301.377153 0-235.007131-191.194522-426.201653-426.201653-426.201653z m372.391031 426.201653c0 99.468935-38.732886 192.986416-109.079513 263.333043-70.335864 70.341246-163.842583 109.074131-263.32228 109.074131-205.341335 0-372.396412-167.055077-372.396412-372.396412 0-99.468935 38.738267-192.986416 109.079512-263.32228 70.330483-70.335864 163.847964-109.074131 263.327662-109.074132 205.335954-0.005381 372.391031 167.049696 372.391031 372.38565z"
          fill="#6E6E96" p-id="2309"></path>
    <path d="M892.54065 630.004004c-55.602516 0-100.841106-45.233209-100.841107-100.835725s45.23859-100.841106 100.841107-100.841106 100.835725 45.23859 100.835725 100.841106-45.233209 100.835725-100.835725 100.835725z m154.646347-100.835725c0-85.279074-69.383416-154.651729-154.646347-154.651729-85.279074 0-154.651729 69.378035-154.651729 154.651729s69.383416 154.646348 154.651729 154.646348 154.646348-69.372654 154.646347-154.646348z"
          fill="#6E6E96" p-id="2310"></path>
    <path d="M75.334871 110.704593c0-29.595842 24.21478-53.810622 53.810623-53.810622h758.659821c29.595842 0 53.810622 24.21478 53.810622 53.810622v821.817349c0 29.595842-24.21478 53.810622-53.810622 53.810622H129.145494c-29.595842 0-53.810622-24.21478-53.810623-53.810622V110.704593z"
          fill="#00CCC6" p-id="2311"></path>
    <path d="M941.615937 129.958034h28.175242v797.968481h-28.175242z" opacity=".06" p-id="2312"></path>
    <path d="M124.173392 56.893971c-26.862263 0-48.843902 21.976258-48.843902 48.838521v831.761552c0 26.862263 21.976258 48.838521 48.843902 48.83852h151.584523V56.893971h-151.584523z"
          fill="#6E6E96" opacity=".33" p-id="2313"></path>
    <path d="M877.04319 40.750784h-16.143186v805.674162c0 29.595842-24.21478 53.810622-53.810623 53.810623H64.572747v16.143186c0 29.595842 24.21478 53.810622 53.810622 53.810623h758.659821c29.595842 0 53.810622-24.21478 53.810623-53.810623V94.561407c0-29.595842-24.21478-53.810622-53.810623-53.810623z"
          fill="#6E6E96" opacity=".15" p-id="2314"></path>
    <path d="M155.857087 188.729996c0-43.947135 9.863487-53.810622 53.810622-53.810623h734.445041v-24.21478c0-29.595842-24.21478-53.810622-53.810622-53.810622H131.642306c-29.595842 0-53.810622 24.21478-53.810622 53.810622v821.817349c0 29.595842 24.21478 53.810622 53.810622 53.810622h24.214781V188.729996z"
          fill="#FFFFFF" opacity=".17" p-id="2315"></path>
    <path d="M247.722581 78.8218h53.810622v907.505383h-53.810622z" fill="#6E6E96" p-id="2316"></path>
    <path d="M102.240182 110.704593c0-14.835589 12.069723-26.905311 26.905312-26.905311h758.659821c14.835589 0 26.905311 12.069723 26.905311 26.905311v821.817349c0 14.84097-12.069723 26.905311-26.905311 26.905311H129.145494c-14.835589 0-26.905311-12.064342-26.905312-26.905311V110.704593zM48.42956 932.521942c0 44.506766 36.209168 80.715934 80.715934 80.715934h758.659821c44.506766 0 80.715934-36.209168 80.715933-80.715934V110.704593c0-44.506766-36.209168-80.715934-80.715933-80.715933H129.145494c-44.506766 0-80.715934 36.209168-80.715934 80.715933v821.817349z"
          fill="#6E6E96" p-id="2317"></path>
    <path d="M925.736423 121.870297h86.096995v796.397211h-86.096995z" fill="#6E6E96" opacity=".15" p-id="2318"></path>
</svg>