<?xml version="1.0" standalone="no"?><!DOCTYPE svg PUBLIC "-//W3C//DTD SVG 1.1//EN"
        "http://www.w3.org/Graphics/SVG/1.1/DTD/svg11.dtd">
<svg t="1735112600794" class="icon" viewBox="0 0 1024 1024" version="1.1" xmlns="http://www.w3.org/2000/svg"
     p-id="32004" xmlns:xlink="http://www.w3.org/1999/xlink" width="200" height="200">
    <path d="M129.472 225.44h601.92v3.52H129.472v-3.52zM129.472 340.8h762.848v4.48H129.44v-4.48zM130.752 457.12h762.848v3.52H130.752v-3.52zM129.472 572.96h762.848v3.52H129.44v-3.52zM130.752 688.8h762.848v3.52H130.752v-3.52zM130.752 804.64h762.848v3.52H130.752v-3.52z"
          fill="#8b80af" p-id="32005"></path>
    <path d="M998.944 262.112l-156.8-144.736-0.128-0.128q-23.232-20.992-54.976-21.248H87.136q-36.064 0-61.568 24.992-25.504 25.024-25.504 60.384V876.576Q0.864 911.36 26.24 935.68q25.376 24.32 60.864 24.32h848q36.544 0.736 62.72-24.32 26.208-25.12 26.208-61.088V319.232q-0.32-33.6-25.12-57.12z m-211.904-134.016q18.784 0.16 32.704 12.704l0.064 0.064 156.672 144.64q14.656 13.856 14.848 34.016v555.072q0 22.464-16.384 38.144-16.352 15.68-39.232 15.168H87.136q-22.144 0-38.016-15.2-15.776-15.104-16.32-36.672V181.376q0-22.08 15.904-37.664 15.904-15.616 38.4-15.616h699.936z"
          fill="#8b80af" p-id="32006"></path>
    <path d="M831.744 312.64H992v-32h-159.68q-8.896-0.384-15.04-6.848-6.24-6.56-6.08-15.584v-151.04h-32v150.464q-0.384 22.144 14.88 38.208 15.264 16.064 37.376 16.8h0.288z"
          fill="#8b80af" p-id="32007"></path>
    <path d="M694.624 500.448q5.664 58.368-23.744 109.12a32 32 0 0 0 55.36 32.064q39.744-68.512 32.064-147.392-7.68-78.848-59.84-138.432-52.16-59.616-129.312-77.664-77.152-18.016-150.368 12.288a32 32 0 0 0-19.744 29.568v0.512a32 32 0 0 0 32 31.488h0.512a32 32 0 0 0 11.744-2.432q54.176-22.432 111.264-9.088 57.12 13.344 95.744 57.472t44.32 102.496z"
          fill="#8b80af" p-id="32008"></path>
    <path d="M353.824 431.392a32 32 0 0 0-56.128-30.784q-29.76 54.272-29.856 116.16-0.096 59.84 26.848 112.384 25.664 50.112 70.976 84.256t100.544 45.056q57.92 11.424 115.456-5.152a32 32 0 0 0 23.136-30.752v-0.064a32 32 0 0 0-32-31.936h-0.064a32 32 0 0 0-8.8 1.28q-42.624 12.256-85.344 3.84-40.832-8.064-74.4-33.376-33.6-25.312-52.576-62.336-19.84-38.72-19.776-83.104 0.064-45.536 21.952-85.44z"
          fill="#8b80af" p-id="32009"></path>
    <path d="M545.6 656.32q20.16 11.2 81.6 41.6a11.52 11.52 0 0 1 4.8 15.04l-41.6 81.28" fill="#8b80af"
          p-id="32010"></path>
    <path d="M462.08 386.24q-20.48-10.56-82.88-39.04a10.88 10.88 0 0 1-5.12-14.72l38.72-82.56" fill="#8b80af"
          p-id="32011"></path>
</svg>