<?xml version="1.0" standalone="no"?><!DOCTYPE svg PUBLIC "-//W3C//DTD SVG 1.1//EN"
        "http://www.w3.org/Graphics/SVG/1.1/DTD/svg11.dtd">
<svg t="1744335369292" class="icon" viewBox="-100 -120 1224 1224" version="1.1" xmlns="http://www.w3.org/2000/svg" p-id="5199"
     xmlns:xlink="http://www.w3.org/1999/xlink" width="180" height="180">
    <path d="M819.78 385.43c1.24-144.15-28.49-244.91-90.89-307.99C678.13 26.12 607.46 1.16 512.86 1.16c-40.15 0-77.44 6.2-110.82 18.44-38.48 14.11-71.9 36.25-99.34 65.81-60.66 65.35-91.54 166.27-91.84 299.98h-4.9c-62.06 0-112.54 50.48-112.54 112.54v412.04c0 62.06 50.48 112.54 112.54 112.54h611.3c62.06 0 112.54-50.48 112.54-112.54V497.94c0-61.21-49.13-111.16-110.02-112.51zM360.4 138.97c36.4-39.21 87.69-59.09 152.47-59.09 72.48 0 124.84 17.31 160.07 52.92 46.33 46.84 69.24 131.83 68.12 252.6H289.57c0.28-113.17 24.1-196.09 70.83-246.43z m490.68 771.01c0 18.65-15.18 33.82-33.82 33.82h-611.3c-18.65 0-33.82-15.18-33.82-33.82V497.94c0-18.65 15.18-33.82 33.82-33.82h611.3c18.65 0 33.82 15.17 33.82 33.82v412.04zM590.69 626.06v3.99c0 39.25-15.35 63.15-46.05 71.71v143.59c0 19.77-9.89 29.66-29.65 29.66h-1.42c-19.77 0-29.66-9.89-29.66-29.66V702.19c-31.83-8.14-47.76-32.17-47.76-72.14v-3.99c0-50.19 25.09-75.28 75.28-75.28h3.99c50.18-0.01 75.27 25.09 75.27 75.28z"
          p-id="5200" fill="#2c2c2c"></path>
</svg>