<?xml version="1.0" standalone="no"?><!DOCTYPE svg PUBLIC "-//W3C//DTD SVG 1.1//EN" "http://www.w3.org/Graphics/SVG/1.1/DTD/svg11.dtd"><svg t="1744948736699" class="icon" viewBox="0 0 1024 1024" version="1.1" xmlns="http://www.w3.org/2000/svg" p-id="2285" xmlns:xlink="http://www.w3.org/1999/xlink" width="200" height="200"><path d="M780.8 699.733333c44.8-61.866667 68.266667-138.666667 68.266667-215.466666 0-206.933333-168.533333-375.466667-375.466667-375.466667S100.266667 277.333333 100.266667 484.266667s168.533333 375.466667 375.466666 375.466666c61.866667 0 123.733333-17.066667 179.2-44.8l-64-64c-36.266667 14.933333-74.666667 23.466667-115.2 23.466667-160 0-290.133333-130.133333-290.133333-290.133333s128-290.133333 288-290.133334 290.133333 130.133333 290.133333 290.133334c0 70.4-25.6 140.8-74.666666 192l-25.6 25.6 4.266666 4.266666 202.666667 202.666667 59.733333-59.733333-149.333333-149.333334z" fill="#2c2c2c" p-id="2286"></path></svg>