<?xml version="1.0" standalone="no"?><!DOCTYPE svg PUBLIC "-//W3C//DTD SVG 1.1//EN"
        "http://www.w3.org/Graphics/SVG/1.1/DTD/svg11.dtd">
<svg t="1735388000352" class="icon" viewBox="0 0 1024 1024" version="1.1" xmlns="http://www.w3.org/2000/svg"
     p-id="33512" xmlns:xlink="http://www.w3.org/1999/xlink" width="200" height="200">
    <path d="M719.8 739.1h-61.9v-40h61.9c96.3 0 174.6-78.3 174.6-174.6 0-93.7-73.3-170.3-166.8-174.4l-14.5-0.6-3.9-13.9c-27.2-97-116.7-164.8-217.6-164.8-123.8 0-225.1 100.7-226 224.4l-0.1 15-14.5 4.1c-61.2 17.3-103.9 73.8-103.9 137.4 0 78.7 64.1 142.8 142.8 142.8h72.4v40H290c-100.8 0-182.8-82-182.8-182.8 0-40.6 13-79.1 37.7-111.2 20.9-27.2 49.3-48.1 81.2-60.1 3.9-65.2 31.3-125.9 78-172.3 50.2-49.8 116.7-77.3 187.5-77.3 59.2 0 115.2 19 162 55 41.6 32 73.1 76.1 89.9 125.5 49.9 5.5 96 28.2 131.1 64.7 38.5 40.1 59.7 92.9 59.7 148.5 0 57.3-22.3 111.2-62.8 151.7-40.5 40.6-94.4 62.9-151.7 62.9z"
          p-id="33513" fill="#2c2c2c"></path>
    <path d="M496.5 542.6h40v269h-40z" p-id="33514" fill="#2c2c2c"></path>
    <path d="M443.1 613.4l-27.8-28.7 104.5-101.5 97.9 102-28.8 27.7-70.1-73z" p-id="33515" fill="#2c2c2c"></path>
</svg>