<?xml version="1.0" standalone="no"?><!DOCTYPE svg PUBLIC "-//W3C//DTD SVG 1.1//EN" "http://www.w3.org/Graphics/SVG/1.1/DTD/svg11.dtd"><svg t="1744335708749" class="icon" viewBox="0 0 1024 1024" version="1.1" xmlns="http://www.w3.org/2000/svg" p-id="11005" xmlns:xlink="http://www.w3.org/1999/xlink" width="200" height="200"><path d="M513.023 83c139.512 65.438 250.96 101.458 334.345 108.062C862.97 192.297 875 205.318 875 220.968V353h-60V241.377c-71.598 0.148-172.313-30.644-302.146-92.377-126.416 62.69-226.95 93.497-301.6 92.42l-2.254-0.043V539.71C231.085 702.993 332.085 814.756 512 875c175.845-59.419 276.594-169.552 302.246-330.4l0.555-3.6H875v3.748C845.794 737.985 724.794 870.068 512 941c-215.542-71.197-336.542-203.281-363-396.252V242.71c0-27.088 20.426-49.817 47.36-52.7 83.56-8.943 189.115-44.614 316.663-107.01z" fill="#333333" p-id="11006"></path><path d="M465.544 654c-8.024 0-16.017-3.077-22.138-9.2L318.158 519.02c-12.21-12.278-12.21-32.2 0-44.476 12.243-12.277 32.065-12.277 44.276 0l103.11 103.543 197.022-197.856c12.21-12.308 32.033-12.308 44.276 0 12.21 12.277 12.21 32.167 0 44.444L487.682 644.8a31.25 31.25 0 0 1-22.138 9.2z" fill="#1C9DFF" p-id="11007"></path><path d="M815 317m29 0l2 0q29 0 29 29l0 14q0 29-29 29l-2 0q-29 0-29-29l0-14q0-29 29-29Z" fill="#333333" p-id="11008"></path><path d="M847.51 511.276l1.713 0.21c15.267 1.875 26.506 15.203 25.777 30.566l-2.943 17.603c-2.674 15.995-17.47 27.045-33.566 25.07-15.897-1.953-27.202-16.422-25.25-32.319l1.95-15.88c1.952-15.897 16.421-27.202 32.318-25.25z" fill="#333333" p-id="11009"></path></svg>