<?xml version="1.0" standalone="no"?><!DOCTYPE svg PUBLIC "-//W3C//DTD SVG 1.1//EN"
        "http://www.w3.org/Graphics/SVG/1.1/DTD/svg11.dtd">
<svg class="icon" width="200px" height="200.00px" viewBox="0 0 1024 1024" version="1.1"
     xmlns="http://www.w3.org/2000/svg">
    <path fill="#2c2c2c"
          d="M511.488 1.024C229.376 1.024 0.512 229.888 0.512 512s228.864 510.976 510.976 510.976 510.976-228.864 510.976-510.976C1022.464 229.888 793.6 1.024 511.488 1.024z m0 962.048c-248.832 0-451.072-201.728-451.072-451.072 0-248.832 201.728-451.072 451.072-451.072 248.832 0 451.072 201.728 451.072 451.072 0 248.832-202.24 451.072-451.072 451.072z"/>
    <path fill="#2c2c2c"
          d="M511.488 391.68c-66.56 0-120.32 53.76-120.32 120.32s53.76 120.32 120.32 120.32 120.32-53.76 120.32-120.32-53.76-120.32-120.32-120.32z m0 180.224c-33.28 0-59.904-27.136-59.904-59.904 0-33.28 27.136-59.904 59.904-59.904 33.28 0 59.904 27.136 59.904 59.904 0 33.28-26.624 59.904-59.904 59.904z"/>
    <path fill="#2c2c2c"
          d="M510.976 860.672c-192.512 0-349.184-156.16-349.184-348.672 0-9.728 8.192-17.92 17.92-17.92s17.92 8.192 17.92 17.92c0 172.544 140.8 312.832 313.344 312.832 9.728 0 17.92 8.192 17.92 17.92s-8.192 17.92-17.92 17.92zM189.44 462.336c-9.728 0-17.92-8.192-17.92-17.92 0-3.072 0.512-4.608 3.072-12.288 3.072-9.216 12.8-14.848 22.528-11.776 9.216 3.072 14.848 12.8 11.776 22.528 0 0-1.024 3.584-1.536 5.12-2.048 8.192-9.216 14.336-17.92 14.336z m17.92-17.92z m0 0z"/>
</svg>