<?xml version="1.0" standalone="no"?><!DOCTYPE svg PUBLIC "-//W3C//DTD SVG 1.1//EN"
        "http://www.w3.org/Graphics/SVG/1.1/DTD/svg11.dtd">
<svg class="icon" width="200px" height="200.00px" viewBox="0 0 1024 1024" version="1.1"
     xmlns="http://www.w3.org/2000/svg">
    <path fill="#2c2c2c"
          d="M684.8 396.8H339.2c-12.8 0-32-12.8-32-38.4 0-19.2 12.8-32 32-32h339.2c19.2 0 32 12.8 32 32s-6.4 38.4-25.6 38.4z m0 204.8H339.2c-19.2 0-32-12.8-32-32s12.8-32 32-32h339.2c19.2 0 32 12.8 32 32s-6.4 32-25.6 32z m0 204.8H339.2c-19.2 0-32-12.8-32-32s12.8-32 32-32h339.2c19.2 0 32 12.8 32 32s-6.4 32-25.6 32zM896 729.6c-19.2 0-38.4 19.2-38.4 38.4v115.2c0 32-12.8 57.6-38.4 57.6H211.2c-19.2 0-38.4-19.2-38.4-44.8V192c0-25.6 19.2-38.4 38.4-38.4h57.6c6.4 38.4 44.8 64 83.2 64h313.6c44.8 0 76.8-32 89.6-70.4H832c6.4 0 19.2 6.4 19.2 19.2V576c0 19.2 19.2 38.4 38.4 38.4s38.4-19.2 38.4-38.4V166.4c0-51.2-44.8-96-96-96h-76.8c0-38.4-32-70.4-70.4-70.4H352c-44.8 0-76.8 32-89.6 70.4h-51.2c-64 6.4-115.2 57.6-115.2 121.6v710.4c0 64 51.2 115.2 115.2 115.2h608c64 0 115.2-57.6 115.2-134.4V768c0-19.2-19.2-38.4-38.4-38.4zM339.2 96c0-6.4 6.4-12.8 12.8-12.8h320c6.4 0 12.8 6.4 12.8 12.8V128c0 6.4-6.4 12.8-12.8 12.8h-320c-6.4 0-12.8-6.4-12.8-12.8v-32z"/>
</svg>