<?xml version="1.0" standalone="no"?><!DOCTYPE svg PUBLIC "-//W3C//DTD SVG 1.1//EN"
        "http://www.w3.org/Graphics/SVG/1.1/DTD/svg11.dtd">
<svg class="icon" width="200px" height="200.00px" viewBox="0 0 1024 1024" version="1.1"
     xmlns="http://www.w3.org/2000/svg">
    <path fill="#2c2c2c"
          d="M512.104171 127.921872c59.7941 0 113.96297 15.833978 152.089522 49.168667 34.793082 30.417904 56.252289 75.003052 56.252289 135.005494 0 63.544252-24.16765 128.755239-63.127569 177.090539-37.501526 46.251882-88.54527 77.503154-145.214242 77.503153-56.668973 0-107.712716-31.04293-145.214242-77.503153-38.959919-48.3353-63.127569-113.546287-63.127569-177.090539 0-59.7941 21.250865-104.379247 56.252289-135.005494 38.126551-33.33469 92.295422-49.168667 152.089522-49.168667z m131.046999 73.336317c-32.084639-27.917803-78.753204-41.251679-131.046999-41.251678s-99.170702 13.125534-131.046999 41.251678c-28.126144 24.584334-45.210173 61.044151-45.210173 110.837844 0 56.252289 21.459207 114.171312 56.043947 157.089725 31.667955 39.16826 73.961343 65.419329 120.213225 65.419328 46.251882 0 88.54527-26.251068 120.213225-65.419328 34.584741-42.918413 56.043947-100.629095 56.043947-157.089725 0-49.793693-17.084028-86.461851-45.210173-110.837844z"/>
    <path fill="#2c2c2c"
          d="M290.636826 632.942421c-32.501322 17.709054-52.710478 52.293795-63.544252 91.670397-12.500509 46.251882-11.875483 98.545677-2.500102 139.589013h574.606714c9.375381-41.043337 10.000407-93.337131-2.500102-139.589013-10.625432-39.376602-30.834588-73.753001-63.544252-91.670397-16.667345-9.16704-32.709664-17.29237-48.3353-24.584334-12.917192-6.041913-25.626043-11.4588-37.91821-16.459003-19.375788 11.250458-40.001628 20.209156-61.877517 26.45941-23.334283 6.666938-47.710275 10.208749-73.336318 10.208749-25.626043 0-50.002035-3.541811-73.336317-10.208749-21.87589-6.250254-42.501729-15.208952-61.877518-26.45941-12.292167 4.791862-25.001017 10.208749-37.918209 16.459003-15.208952 7.291963-31.251272 15.417294-47.918617 24.584334z m-94.37884 83.336724c12.70885-47.085249 37.91821-88.753611 79.169888-111.254526 17.084028-9.375381 33.751373-17.917396 50.002034-25.417701 15.833978-7.500305 31.04293-13.958901 46.251882-19.584131 4.791862-2.29176 10.417091-2.083418 15.208953 0.833368 18.959105 11.667141 39.16826 20.834181 60.627467 27.084435 20.417497 5.833571 41.876704 8.958698 64.585961 8.958698 22.500916 0 44.168464-3.125127 64.585961-8.958698 21.459207-6.250254 41.668362-15.417294 60.627467-27.084435 3.958494-2.500102 9.16704-3.125127 13.958902-1.458393 15.417294 5.833571 31.251272 12.500509 47.501932 20.209156 16.250661 7.708647 32.918006 16.042319 50.002035 25.417701 41.251679 22.500916 66.252696 64.37762 79.169888 111.254526 15.208952 56.043947 12.917192 120.213225-0.416684 167.298475-1.666734 7.083622-7.916989 12.500509-15.625635 12.500508H212.300305c-6.87528 0-13.333876-4.58352-15.417294-11.667141-13.333876-47.293591-15.833978-111.879552-0.625025-168.131842zM616.275076 170.006918c3.333469-5.833571 10.625432-7.708647 16.250662-4.58352 5.833571 3.333469 7.708647 10.625432 4.583519 16.250661-15.00061 26.251068-38.751577 43.960122-65.419328 55.21058-32.292981 13.542218-68.544456 17.29237-97.295626 14.375585-2.500102-0.208342-8.125331 3.541811-15.00061 9.792065-9.375381 8.333672-19.375788 20.209156-27.292777 32.501322-3.541811 5.625229-11.042116 7.083622-16.459003 3.541811-1.250051-0.833367-2.083418-1.666734-2.916786-2.708443-4.375178-5.625229-9.16704-12.70885-12.292167-21.250865-1.666734-4.375178-3.125127-9.16704-3.750152-14.375585-12.292167 5.208545-26.876094 16.042319-38.959919 29.376195-14.583927 15.833978-25.209359 34.584741-24.375992 50.62706 0.208342 6.666938-4.791862 12.083825-11.458799 12.500509-6.666938 0.208342-12.083825-4.791862-12.500509-11.4588-1.041709-22.709257 12.500509-47.710275 30.834588-67.711088 20.417497-22.500916 47.710275-39.376602 67.91943-40.20997h2.083418c6.458596 0.833367 11.250458 6.87528 10.417091 13.333876-1.041709 7.291963 0.208342 13.75056 2.29176 19.167447 0.208342 0.208342 0.208342 0.625025 0.416684 0.833367 6.666938-8.333672 13.75056-16.042319 20.417497-22.292574 11.667141-10.417091 23.542625-16.667345 33.33469-15.625635 25.209359 2.500102 57.293998-0.625025 85.628484-12.500509 21.87589-9.16704 41.668362-23.750966 53.543845-44.793489z"/>
    <path fill="#2c2c2c"
          d="M583.565412 233.134486c-2.916785-5.833571-0.625025-13.125534 5.208545-16.042319 5.833571-2.916785 13.125534-0.625025 16.04232 5.208545 7.500305 14.792269 15.00061 27.917803 23.959308 37.293184 8.125331 8.542014 18.125738 14.375585 31.667955 16.04232 7.916989 1.041709 15.833978 4.375178 24.584334 12.292167 7.500305 6.87528 15.625636 17.500712 24.792675 33.543031 3.333469 5.625229 1.250051 13.125534-4.375178 16.250661-5.625229 3.333469-13.125534 1.250051-16.250661-4.375178-7.916989-13.75056-14.583927-22.500916-20.209156-27.709461-4.58352-4.166836-8.125331-5.833571-11.250457-6.250254-19.58413-2.500102-34.168057-11.042116-46.043541-23.542625-11.4588-11.4588-19.792472-26.251068-28.126144-42.710071zM306.470804 348.764191c0-8.750356 7.083622-16.042319 15.833977-16.042319 8.750356 0 16.042319 7.083622 16.04232 15.833977 0.416684 50.62706-4.791862 63.960936-13.333876 86.878536l-0.208342 0.625025c-2.708444 6.87528-3.541811 13.75056-3.333469 20.417497 0.625025 10.625432 4.791862 20.625839 11.4588 29.167854 6.87528 8.750356 16.459003 15.625636 27.501119 19.792472 8.333672 3.125127 17.500712 4.791862 27.084435 4.166836 3.958494-0.208342 7.500305-0.625025 10.833774-1.458392 2.708444-0.625025 5.208545-1.458393 7.083622-2.29176 7.916989-3.958494 17.500712-0.833367 21.459206 7.083621 3.958494 7.916989 0.833367 17.500712-7.083621 21.459207-4.375178 2.29176-9.16704 3.750153-14.375585 5.000203-5.000203 1.250051-10.417091 1.875076-16.04232 2.083418-14.167243 0.833367-27.709461-1.458393-40.001627-6.250254-16.459003-6.250254-30.834588-16.667345-41.251679-29.792879-10.625432-13.333876-17.500712-29.792879-18.334079-47.293591-0.625025-10.833774 1.041709-22.084232 5.208545-33.33469l0.208342-0.625025c7.083622-19.375788 11.4588-30.626246 11.250458-75.419736z"/>
    <path fill="#2c2c2c"
          d="M685.861241 348.764191c0-8.750356 7.291963-15.833978 16.04232-15.833977s15.833978 7.291963 15.833977 16.042319c-0.208342 44.793489 3.958494 56.043947 11.4588 75.628077l0.208342 0.625026c4.166836 11.250458 5.833571 22.500916 5.208545 33.33469-1.041709 17.500712-7.708647 33.751373-18.33408 47.293591-10.417091 13.125534-24.792675 23.542625-41.251678 29.792879-12.292167 4.791862-26.042726 6.87528-40.001628 6.250254-5.625229-0.416684-11.042116-1.041709-16.042319-2.083418-5.208545-1.250051-10.000407-2.708444-14.375585-5.000204-7.916989-3.958494-11.042116-13.542218-7.083622-21.459206 3.958494-7.916989 13.542218-11.042116 21.459207-7.083622 1.875076 1.041709 4.375178 1.666734 7.083621 2.29176 3.333469 0.833367 6.87528 1.250051 10.833775 1.458393 9.583723 0.625025 18.750763-1.041709 27.084435-4.166836 11.042116-4.166836 20.625839-11.042116 27.501119-19.792472 6.666938-8.542014 11.042116-18.542421 11.4588-29.167854 0.416684-6.666938-0.625025-13.542218-3.333469-20.417497l-0.208342-0.625026c-8.958698-23.125941-13.958901-36.459817-13.542218-87.086877zM522.729603 413.350153c74.169685 3.958494 49.585351 26.876094 98.96236 48.960325-50.418718-9.792065-34.168057-35.62645-96.045574-24.584334-6.666938 0.833367-12.917192-3.958494-13.75056-10.625432-0.625025-6.87528 4.166836-12.917192 10.833774-13.750559z"/>
    <path fill="#2c2c2c"
          d="M501.270397 413.350153c-74.169685 3.958494-49.585351 26.876094-98.96236 48.960325 50.418718-9.792065 34.168057-35.62645 96.045574-24.584334 6.666938 0.833367 12.917192-3.958494 13.75056-10.625432 0.625025-6.87528-4.166836-12.917192-10.833774-13.750559zM496.061851 501.062055c0-8.750356 7.083622-16.042319 16.04232-16.042319 8.750356 0 16.042319 7.083622 16.042319 16.042319V547.938962c0 8.750356-7.083622 16.042319-16.042319 16.04232s-16.042319-7.083622-16.04232-16.04232v-46.876907z"/>
</svg>